<svg width="24" height="24" viewBox="0 0 24 24" fill="none" xmlns="http://www.w3.org/2000/svg">
<path d="M12 20V11M12 20C13.5913 20 15.1174 19.3679 16.2426 18.2426C17.3679 17.1174 18 15.5913 18 14V11C18 9.93913 17.5786 8.92172 16.8284 8.17157C16.0783 7.42143 15.0609 7 14 7H10C8.93913 7 7.92172 7.42143 7.17157 8.17157C6.42143 8.92172 6 9.93913 6 11V14C6 15.5913 6.63214 17.1174 7.75736 18.2426C8.88258 19.3679 10.4087 20 12 20ZM14.12 3.88L16 2" stroke="#22776E" stroke-width="2" stroke-linecap="round" stroke-linejoin="round"/>
<path d="M21 21C21.0012 19.9712 20.6059 18.9816 19.8964 18.2367C19.1868 17.4918 18.2176 17.0489 17.19 17M21 5C20.9989 5.98215 20.6364 6.92956 19.9818 7.66169C19.3271 8.39383 18.4259 8.85951 17.45 8.97M22 13H18M3 21C2.99884 19.9712 3.39409 18.9816 4.10362 18.2367C4.81315 17.4918 5.78241 17.0489 6.81 17M3 5C3.00113 5.98215 3.36357 6.92956 4.01825 7.66169C4.67293 8.39383 5.57408 8.85951 6.55 8.97M6 13H2M8 2L9.88 3.88M9 7.13V6C9 5.20435 9.31607 4.44129 9.87868 3.87868C10.4413 3.31607 11.2044 3 12 3C12.7956 3 13.5587 3.31607 14.1213 3.87868C14.6839 4.44129 15 5.20435 15 6V7.13" stroke="#22776E" stroke-width="2" stroke-linecap="round" stroke-linejoin="round"/>
</svg>
