<svg width="16" height="22" viewBox="0 0 16 22" fill="none" xmlns="http://www.w3.org/2000/svg">
<path d="M1.00024 21L15.0002 17M1.00024 17L15.0002 21M8.00024 1C9.00024 4 10.5002 4.5 11.5002 5.5C12.4423 6.42315 12.9815 7.68115 13.0002 9C13.0002 10.3261 12.4735 11.5979 11.5358 12.5355C10.5981 13.4732 9.32633 14 8.00024 14C6.67416 14 5.40239 13.4732 4.46471 12.5355C3.52703 11.5979 3.00024 10.3261 3.00024 9C3.00024 8.7 3.00024 8.4 3.10024 8.1C3.18475 8.39574 3.33633 8.668 3.54319 8.89562C3.75005 9.12324 4.00663 9.30008 4.29296 9.41239C4.5793 9.52471 4.88768 9.56947 5.19413 9.54319C5.50058 9.51692 5.79684 9.42032 6.05988 9.2609C6.32292 9.10148 6.54564 8.88355 6.71074 8.62403C6.87584 8.36452 6.97885 8.07043 7.01178 7.76462C7.04471 7.45882 7.00666 7.14954 6.9006 6.86083C6.79454 6.57212 6.62331 6.31176 6.40024 6.1C4.00024 3.5 7.00024 1 8.00024 1Z" stroke="#22776E" stroke-width="2" stroke-linecap="round" stroke-linejoin="round"/>
</svg>
