<svg width="44" height="44" viewBox="0 0 44 44" fill="none" xmlns="http://www.w3.org/2000/svg">
<path d="M14.3001 3.66663H29.7001C35.5667 3.66663 40.3334 8.43329 40.3334 14.3V29.7C40.3334 32.5201 39.2131 35.2247 37.219 37.2189C35.2248 39.213 32.5202 40.3333 29.7001 40.3333H14.3001C8.43341 40.3333 3.66675 35.5666 3.66675 29.7V14.3C3.66675 11.4798 4.78704 8.77519 6.78118 6.78106C8.77532 4.78692 11.4799 3.66663 14.3001 3.66663ZM13.9334 7.33329C12.183 7.33329 10.5043 8.02865 9.26651 9.26639C8.02877 10.5041 7.33341 12.1829 7.33341 13.9333V30.0666C7.33341 33.715 10.2851 36.6666 13.9334 36.6666H30.0667C31.8172 36.6666 33.4959 35.9713 34.7337 34.7335C35.9714 33.4958 36.6667 31.8171 36.6667 30.0666V13.9333C36.6667 10.285 33.7151 7.33329 30.0667 7.33329H13.9334ZM31.6251 10.0833C32.2329 10.0833 32.8158 10.3247 33.2455 10.7545C33.6753 11.1843 33.9167 11.7672 33.9167 12.375C33.9167 12.9827 33.6753 13.5656 33.2455 13.9954C32.8158 14.4252 32.2329 14.6666 31.6251 14.6666C31.0173 14.6666 30.4344 14.4252 30.0046 13.9954C29.5749 13.5656 29.3334 12.9827 29.3334 12.375C29.3334 11.7672 29.5749 11.1843 30.0046 10.7545C30.4344 10.3247 31.0173 10.0833 31.6251 10.0833ZM22.0001 12.8333C24.4312 12.8333 26.7628 13.7991 28.4819 15.5181C30.201 17.2372 31.1667 19.5688 31.1667 22C31.1667 24.4311 30.201 26.7627 28.4819 28.4818C26.7628 30.2009 24.4312 31.1666 22.0001 31.1666C19.5689 31.1666 17.2374 30.2009 15.5183 28.4818C13.7992 26.7627 12.8334 24.4311 12.8334 22C12.8334 19.5688 13.7992 17.2372 15.5183 15.5181C17.2374 13.7991 19.5689 12.8333 22.0001 12.8333ZM22.0001 16.5C20.5414 16.5 19.1424 17.0794 18.111 18.1109C17.0795 19.1423 16.5001 20.5413 16.5001 22C16.5001 23.4587 17.0795 24.8576 18.111 25.889C19.1424 26.9205 20.5414 27.5 22.0001 27.5C23.4588 27.5 24.8577 26.9205 25.8892 25.889C26.9206 24.8576 27.5001 23.4587 27.5001 22C27.5001 20.5413 26.9206 19.1423 25.8892 18.1109C24.8577 17.0794 23.4588 16.5 22.0001 16.5Z" fill="white"/>
</svg>
