<svg width="12" height="15" viewBox="0 0 12 15" fill="none" xmlns="http://www.w3.org/2000/svg">
<path d="M5.73291 0.800415C7.04116 0.800415 8.29604 1.31978 9.22119 2.24475C10.1463 3.16985 10.6664 4.42475 10.6665 5.73303C10.6665 7.74471 9.42064 9.64947 8.10498 11.0885C7.45427 11.8002 6.80163 12.3809 6.31201 12.7838C6.07324 12.9803 5.87371 13.1337 5.73291 13.2389C5.59209 13.1337 5.39244 12.9802 5.15381 12.7838C4.66422 12.3809 4.01243 11.8001 3.36182 11.0885C2.04612 9.64946 0.800293 7.74477 0.800293 5.73303C0.800379 4.42475 1.31953 3.16985 2.24463 2.24475C3.16973 1.31965 4.42463 0.800501 5.73291 0.800415ZM5.73291 3.33362C5.09651 3.3337 4.48663 3.58673 4.03662 4.03674C3.58661 4.48675 3.33358 5.09663 3.3335 5.73303C3.3335 6.36955 3.58653 6.98021 4.03662 7.4303C4.48662 7.88021 5.09659 8.13334 5.73291 8.13342C6.36943 8.13342 6.98009 7.88039 7.43018 7.4303C7.88026 6.98021 8.1333 6.36955 8.1333 5.73303C8.13321 5.09671 7.88008 4.48674 7.43018 4.03674C6.98009 3.58666 6.36943 3.33362 5.73291 3.33362Z" stroke="#22776E" stroke-width="0.8"/>
<path d="M11.0666 5.73336C11.0666 10.0667 5.73324 13.7334 5.73324 13.7334C5.73324 13.7334 0.399902 10.0667 0.399902 5.73336C0.399902 4.31887 0.961806 2.96232 1.962 1.96212C2.96219 0.961928 4.31875 0.400024 5.73324 0.400024C7.14772 0.400024 8.50428 0.961928 9.50447 1.96212C10.5047 2.96232 11.0666 4.31887 11.0666 5.73336Z" stroke="#22776E" stroke-width="0.8"/>
<path d="M7.73315 5.73334C7.73315 6.26377 7.52244 6.77248 7.14737 7.14755C6.7723 7.52262 6.26359 7.73334 5.73315 7.73334C5.20272 7.73334 4.69401 7.52262 4.31894 7.14755C3.94387 6.77248 3.73315 6.26377 3.73315 5.73334C3.73315 5.2029 3.94387 4.6942 4.31894 4.31912C4.69401 3.94405 5.20272 3.73334 5.73315 3.73334C6.26359 3.73334 6.7723 3.94405 7.14737 4.31912C7.52244 4.6942 7.73315 5.2029 7.73315 5.73334Z" stroke="#22776E" stroke-width="0.8"/>
</svg>
