<svg width="24" height="24" viewBox="0 0 24 24" fill="none" xmlns="http://www.w3.org/2000/svg">
<path d="M12 2.5C13.9891 2.5 15.8972 3.28977 17.3037 4.69629C18.7102 6.10281 19.5 8.01088 19.5 10C19.5 13.0563 17.6088 15.9372 15.6309 18.1006C14.6509 19.1724 13.6696 20.0469 12.9326 20.6533C12.5645 20.9563 12.258 21.1917 12.0449 21.3506C12.0296 21.362 12.0143 21.3722 12 21.3828C11.9857 21.3722 11.9704 21.362 11.9551 21.3506C11.742 21.1917 11.4355 20.9563 11.0674 20.6533C10.3304 20.0469 9.34909 19.1724 8.36914 18.1006C6.39118 15.9372 4.5 13.0563 4.5 10C4.5 8.01088 5.28977 6.10281 6.69629 4.69629C8.10281 3.28977 10.0109 2.5 12 2.5ZM12 6.5C11.0717 6.5 10.1818 6.86901 9.52539 7.52539C8.86901 8.18177 8.5 9.07174 8.5 10C8.5 10.9283 8.86901 11.8182 9.52539 12.4746C10.1818 13.131 11.0717 13.5 12 13.5C12.9283 13.5 13.8182 13.131 14.4746 12.4746C15.131 11.8182 15.5 10.9283 15.5 10C15.5 9.07174 15.131 8.18177 14.4746 7.52539C13.8182 6.86901 12.9283 6.5 12 6.5Z" stroke="white"/>
<path d="M20 10C20 16.5 12 22 12 22C12 22 4 16.5 4 10C4 7.87827 4.84285 5.84344 6.34315 4.34315C7.84344 2.84285 9.87827 2 12 2C14.1217 2 16.1566 2.84285 17.6569 4.34315C19.1571 5.84344 20 7.87827 20 10Z" stroke="white" stroke-width="2"/>
<path d="M15 10C15 10.7956 14.6839 11.5587 14.1213 12.1213C13.5587 12.6839 12.7956 13 12 13C11.2044 13 10.4413 12.6839 9.87868 12.1213C9.31607 11.5587 9 10.7956 9 10C9 9.20435 9.31607 8.44129 9.87868 7.87868C10.4413 7.31607 11.2044 7 12 7C12.7956 7 13.5587 7.31607 14.1213 7.87868C14.6839 8.44129 15 9.20435 15 10Z" stroke="white" stroke-width="2"/>
</svg>
