<svg width="20" height="20" viewBox="0 0 20 20" fill="none" xmlns="http://www.w3.org/2000/svg">
<path d="M18.9869 10.4728C18.8932 12.2089 18.2986 13.8808 17.275 15.2862C16.2514 16.6916 14.8426 17.7705 13.2189 18.3923C11.5953 19.0142 9.82624 19.1524 8.12569 18.7903C6.42514 18.4282 4.86587 17.5813 3.63638 16.3519C2.40688 15.1226 1.5598 13.5634 1.19753 11.8629C0.835263 10.1624 0.973312 8.39333 1.59499 6.7696C2.21668 5.14587 3.29537 3.73698 4.70069 2.71322C6.10601 1.68947 7.77778 1.09469 9.51392 1.00079C9.91892 0.978788 10.1309 1.46079 9.91592 1.80379C9.19681 2.95434 8.88889 4.31466 9.04241 5.66274C9.19594 7.01082 9.80184 8.26707 10.7612 9.22647C11.7206 10.1859 12.9769 10.7918 14.325 10.9453C15.673 11.0988 17.0334 10.7909 18.1839 10.0718C18.5279 9.85679 19.0089 10.0678 18.9869 10.4728Z" stroke="#22776E" stroke-width="2" stroke-linecap="round" stroke-linejoin="round"/>
</svg>
