<svg width="44" height="44" viewBox="0 0 44 44" fill="none" xmlns="http://www.w3.org/2000/svg">
<path d="M18.3334 27.5L27.8484 22L18.3334 16.5V27.5ZM39.5267 13.145C39.7651 14.0066 39.9301 15.1616 40.0401 16.6283C40.1684 18.095 40.2234 19.36 40.2234 20.46L40.3334 22C40.3334 26.015 40.0401 28.9666 39.5267 30.855C39.0684 32.505 38.0051 33.5683 36.3551 34.0266C35.4934 34.265 33.9167 34.43 31.4967 34.54C29.1134 34.6683 26.9317 34.7233 24.9151 34.7233L22.0001 34.8333C14.3184 34.8333 9.53341 34.54 7.64508 34.0266C5.99508 33.5683 4.93175 32.505 4.47341 30.855C4.23508 29.9933 4.07008 28.8383 3.96008 27.3716C3.83175 25.905 3.77675 24.64 3.77675 23.54L3.66675 22C3.66675 17.985 3.96008 15.0333 4.47341 13.145C4.93175 11.495 5.99508 10.4316 7.64508 9.97329C8.50675 9.73496 10.0834 9.56996 12.5034 9.45996C14.8867 9.33163 17.0684 9.27663 19.0851 9.27663L22.0001 9.16663C29.6817 9.16663 34.4667 9.45996 36.3551 9.97329C38.0051 10.4316 39.0684 11.495 39.5267 13.145Z" fill="white"/>
</svg>
