<svg width="48" height="48" viewBox="0 0 48 48" fill="none" xmlns="http://www.w3.org/2000/svg">
<path d="M23.4359 31.3335V42.6154C23.4359 42.6154 30.2728 41.3744 32.4615 38.1026C34.8985 34.4473 32.4615 26.8207 32.4615 26.8207M6.51282 34.7181C3.12821 37.5611 2 46 2 46C2 46 10.439 44.8718 13.2821 41.4872C14.8841 39.5919 14.8615 36.6811 13.079 34.9212C12.2019 34.0841 11.0466 33.6003 9.83477 33.5629C8.62292 33.5254 7.43993 33.9368 6.51282 34.7181Z" stroke="#22776E" stroke-width="4" stroke-linecap="round" stroke-linejoin="round"/>
<path d="M16.6666 24.5644C17.8674 21.4493 19.3793 18.4633 21.1794 15.6517C23.8086 11.448 27.4695 7.98685 31.8139 5.59744C36.1584 3.20803 41.0419 1.96981 46 2.00056C46 8.13792 44.24 18.9234 32.4615 26.8208C29.611 28.6223 26.5874 30.1341 23.4359 31.3335L16.6666 24.5644Z" stroke="#22776E" stroke-width="4" stroke-linecap="round" stroke-linejoin="round"/>
<path d="M16.6667 24.5644H5.38464C5.38464 24.5644 6.62567 17.7275 9.89746 15.5389C13.5528 13.102 21.1795 15.6517 21.1795 15.6517" stroke="#22776E" stroke-width="4" stroke-linecap="round" stroke-linejoin="round"/>
</svg>
